:SAMPLES-PER-SECOND 30
:FULLY-SPECIFIED
:DEGREES
826
root  -16.8832 38.9259 1.9664 -140.129 -83.1524 131.955
RightUpLeg  -18.6705 -3.62467 -7.55627
RightLeg  6.84963 8.23702 -0.306432
RightFoot  -1.49825 -0.731386 8.34808
RightToes  -2.32831e-009 0 -3.6325e-017
Spine  5.4924 0.76195 -4.28052
Spine1  7.18179 0.804191 -1.00073
HEad  -15.9468 3.51561 -3.0934
LeftShoulder1  -0.798245 5.57773 -32.3264
LeftArm  3.98143 -0.917933 -41.7029
LeftForeArm  27.9953 -46.5269 -9.80294
LeftHand  -0.014231 6.73722 1.77155
RightShoulder  -1.03816 -6.27912 30.8515
RightArm  17.0601 -11.3653 42.2009
RightForeArm  15.6276 13.8668 5.85204
RightHand  0.0514453 7.64883 0.0905445
LeftUpLeg  8.97228 4.69787 -6.67675
LeftLeg  15.9266 -3.74291 -0.525439
LeftFoot  -16.1691 0.386527 6.84484
LeftToes  8.91272e-011 -1.70619e-011 7.36378e-012
827
root  -18.2584 38.8017 1.87076 -135.268 -83.6591 126.83
RightUpLeg  -17.6256 -7.37917 -6.50211
RightLeg  -0.889473 12.7023 -1.6096
RightFoot  -2.76174 -0.682109 8.89587
RightToes  -2.32831e-009 0 -3.6325e-017
Spine  5.00759 0.714252 -3.23671
Spine1  8.09944 0.838339 -0.934313
HEad  -16.8116 2.35196 -4.22223
LeftShoulder1  -0.835009 5.66272 -32.5132
LeftArm  5.28171 -1.65048 -41.9046
LeftForeArm  27.7239 -45.3937 -9.40325
LeftHand  -0.0155266 6.62423 1.74837
RightShoulder  -1.01017 -6.2196 30.6344
RightArm  15.3734 -10.962 42.9655
RightForeArm  17.4397 12.8536 5.8628
RightHand  0.122266 7.37304 0.743223
LeftUpLeg  12.2982 4.82661 -6.39673
LeftLeg  14.5341 -4.53741 -0.525284
LeftFoot  -17.5834 0.475738 6.78112
LeftToes  8.91272e-011 -1.70619e-011 7.36378e-012
828
root  -19.6585 38.492 1.6774 -134.604 -83.9695 125.993
RightUpLeg  -17.909 -7.51083 -6.31133
RightLeg  -1.06585 11.1452 -0.819767
RightFoot  -3.99899 -0.661292 9.92777
RightToes  -2.32831e-009 0 -3.6325e-017
Spine  5.15634 0.865539 -2.13145
Spine1  8.22324 1.09814 -1.24326
HEad  -17.3137 1.77051 -4.58985
LeftShoulder1  -0.816391 5.60985 -32.5944
LeftArm  6.2752 -1.96159 -42.48
LeftForeArm  27.1504 -43.404 -8.74471
LeftHand  -0.00961506 6.7497 2.01752
RightShoulder  -1.01167 -6.21277 30.7798
RightArm  15.0167 -10.3367 43.1386
RightForeArm  16.8456 12.5747 5.91747
RightHand  0.060264 7.80755 0.159499
LeftUpLeg  14.6682 4.75514 -5.86023
LeftLeg  15.1991 -4.89941 -0.516738
LeftFoot  -20.1319 0.613228 6.40154
LeftToes  8.91272e-011 -1.70619e-011 7.36378e-012
829
root  -21.0754 38.1511 1.44682 -136.388 -84.3353 127.912
RightUpLeg  -19.5632 -6.14108 -5.5775
RightLeg  5.19999 6.73342 -0.218723
RightFoot  -2.01529 -0.570118 6.70825
RightToes  -2.32831e-009 0 -3.6325e-017
Spine  5.28966 1.00645 -0.923083
Spine1  8.03297 1.28287 -1.36568
HEad  -17.4206 1.45647 -3.9319
LeftShoulder1  -0.73245 5.40349 -32.4046
LeftArm  7.04064 -1.10449 -43.1827
LeftForeArm  26.3802 -40.8023 -7.95207
LeftHand  0.0111457 8.02392 2.29252
RightShoulder  -1.03126 -6.26393 30.8007
RightArm  15.5278 -9.70271 43.2045
RightForeArm  15.6917 12.759 6.0185
RightHand  -0.00924035 8.26107 -0.465237
LeftUpLeg  16.3759 3.73218 -5.56188
LeftLeg  16.5816 -3.80274 -0.198081
LeftFoot  -22.5511 0.68873 5.63872
LeftToes  8.91272e-011 -1.70619e-011 7.36378e-012
830
root  -22.5911 37.9337 1.1791 -137.014 -85.1512 128.829
RightUpLeg  -20.7131 -4.52115 -4.90393
RightLeg  11.3123 3.42583 0.119223
RightFoot  1.06333 -0.410785 4.10084
RightToes  -2.32831e-009 0 -3.6325e-017
Spine  4.38732 0.859133 -0.20857
Spine1  8.59747 0.850545 -0.200898
HEad  -17.5937 1.76293 -4.37578
LeftShoulder1  -0.736279 5.38699 -32.9235
LeftArm  8.23038 0.267526 -43.2302
LeftForeArm  24.5833 -37.1648 -6.99927
LeftHand  0.0266757 8.35256 2.65513
RightShoulder  -1.0052 -6.21953 30.4466
RightArm  16.4268 -9.12581 43.1966
RightForeArm  15.375 13.5654 5.91963
RightHand  0.0261559 8.79003 -0.176029
LeftUpLeg  18.0187 2.017 -4.9847
LeftLeg  17.8732 -2.55186 -0.141777
LeftFoot  -23.5856 0.597835 4.23147
LeftToes  8.91272e-011 -1.70619e-011 7.36378e-012
831
root  -24.0918 37.8397 0.926834 -141.148 -86.5839 133.052
RightUpLeg  -21.4734 -5.14783 -3.69638
RightLeg  15.7551 4.23955 1.05299
RightFoot  8.06538 -0.219872 1.50814
RightToes  -2.32831e-009 0 -3.6325e-017
Spine  4.4157 0.400906 1.67793
Spine1  8.1688 0.308448 0.481371
HEad  -17.7904 2.50471 -5.7083
LeftShoulder1  -0.809442 5.52703 -33.8409
LeftArm  12.1003 1.16542 -42.7249
LeftForeArm  20.9645 -31.6472 -5.73761
LeftHand  0.0423307 8.50865 3.0171
RightShoulder  -1.1082 -6.46346 30.9086
RightArm  17.4384 -8.84378 42.2802
RightForeArm  14.6899 14.8048 5.64509
RightHand  0.0104394 8.47462 -0.297574
LeftUpLeg  19.3263 -0.30695 -3.86844
LeftLeg  20.0207 -1.93027 -0.475914
LeftFoot  -23.3035 0.340511 1.95512
LeftToes  8.91272e-011 -1.70619e-011 7.36378e-012
832
root  -25.633 37.6417 0.702367 -172.733 -87.1684 164.173
RightUpLeg  -22.0223 -4.59854 -1.79751
RightLeg  22.4551 4.43635 1.82141
RightFoot  6.04991 -0.0124777 0.335825
RightToes  -2.32831e-009 0 -3.6325e-017
Spine  5.11546 0.144578 5.46678
Spine1  7.74977 0.496815 -0.357303
HEad  -17.3725 3.21158 -5.72483
LeftShoulder1  -0.840432 5.57276 -34.4311
LeftArm  16.603 2.09119 -42.7321
LeftForeArm  17.7947 -24.9897 -4.59074
LeftHand  -0.0325412 8.28508 0.658677
RightShoulder  -1.10729 -6.46609 30.8401
RightArm  16.4157 -8.43065 42.095
RightForeArm  14.7778 15.0926 5.35959
RightHand  0.0275514 8.11143 -0.141461
LeftUpLeg  19.9961 0.651091 -0.723394
LeftLeg  25.0911 -3.77073 -1.60777
LeftFoot  -22.7387 -0.05137 -1.90211
LeftToes  8.91272e-011 -1.70619e-011 7.36378e-012
